<svg id="Layer_1" data-name="Layer 1" xmlns="http://www.w3.org/2000/svg" viewBox="0 0 89.55 48.03"><defs><style>.cls-1{fill:#fff;}</style></defs><g id="Layer_2" data-name="Layer 2"><g id="레이어_1" data-name="레이어 1"><path class="cls-1" d="M65,15.24H88.47a1.08,1.08,0,0,0,1.08-1.08h0V1.09A1.08,1.08,0,0,0,88.48,0H57.81a1.76,1.76,0,0,0-1.26.54L48,9.53l-8.56-9A1.76,1.76,0,0,0,38.18,0H9.81A1.76,1.76,0,0,0,8.55.54L.48,9.05A1.72,1.72,0,0,0,0,10.25V46.91A1.09,1.09,0,0,0,1.09,48H14.16a1.08,1.08,0,0,0,1.08-1.08h0V17.25a1.82,1.82,0,0,1,1.8-1.8H31a1.82,1.82,0,0,1,1.8,1.8V46.91a1.08,1.08,0,0,0,1,1.09H46.91A1.09,1.09,0,0,0,48,46.91h0V38.49l8.55,9a1.72,1.72,0,0,0,1.26.54H88.47A1.08,1.08,0,0,0,89.55,47h0V33.84a1.08,1.08,0,0,0-1.08-1.08H65A1.82,1.82,0,0,1,63.2,31V17A1.81,1.81,0,0,1,65,15.24Z"/></g></g></svg>